<?xml version="1.0" encoding="utf-8"?>
<!-- Generator: Adobe Illustrator 25.2.1, SVG Export Plug-In . SVG Version: 6.00 Build 0)  -->
<svg version="1.1" xmlns="http://www.w3.org/2000/svg" xmlns:xlink="http://www.w3.org/1999/xlink" x="0px" y="0px"
	 viewBox="0 0 300 270" style="enable-background:new 0 0 300 270;" width="300" height="270" xml:space="preserve">
<style type="text/css">
	.st0{fill:#FFFFFF;}
	.st1{fill:#023D5E;}
</style>
<g id="Ebene_3">
	<path class="st0" d="M150.2,269c-48.8,0-97.5,0-146.3,0c-3,0-3.2-0.4-3-3.4C2,251.1,9.7,241,21.8,233.5
		c10.9-6.7,22.7-11.5,34.3-16.8c7.3-3.3,14.5-6.8,21.8-10.1c2.2-1,2.4-2.3,1.4-4.1c-2-3.6-4-7.1-6-10.7c-2.2-4-4.6-7.9-6.7-11.9
		c-2.6-5-2.1-8.2,2-12c4.5-4.2,9.5-8,14.2-12c1.7-1.4,4.2-2.6,4.6-4.3c0.4-1.4-1.7-3.5-2.8-5.2c-1.7-2.7-1.8-2.7-4.4-0.9
		c-4.7,3.2-9.6,5.6-15.6,5.1c-7.7-0.7-13.2-5.7-14.4-13.4c-1.2-7.9,0.6-15.2,4.4-22.1c0.4-0.8,0.4-2,0.1-2.9
		c-1.2-3.8-2.6-7.6-3.7-11.4c-1.1-3.7-0.5-7.4,2.2-10c4-3.8,3.3-8,2.4-12.6c-0.8-4.1-1.2-8.4-1.7-12.6c-0.3-3.3,1-6,3.7-7.8
		c3.1-2.1,4.2-4.8,4.3-8.4C62,42,66.4,37.1,72.3,33.3c2.5-1.7,5.2-3.1,7.9-4.5c1.6-0.8,2.6-1.9,2.8-3.6c1.1-7.8,5.3-13.2,12.7-16.4
		c6.7-2.8,13.3-5.6,20.8-5.5c4.4,0.1,8.4,1.2,12.2,3.4c0.9,0.5,2.4,0.7,3.4,0.3c8.6-3.6,17.7-5.2,27-5.9c1.9-0.1,3.7-0.3,5.6-0.5
		c6.8-0.7,11.8,2.4,15.7,7.6c2.4,3.2,2.5,3.2,6.1,1.6c4.9-2.1,9.3-0.7,11.6,4c1.1,2.2,1.6,2.7,4.2,1.6c4.3-2,8.8-0.8,12.6,1.7
		c10.1,6.7,15.3,15.9,14.3,28.2c-0.1,1.4-0.9,2.7-1,4c-0.1,0.9,0.3,2.4,0.9,2.6c4.4,1.9,6.5,5.7,8,9.8c2.5,6.9,3.1,14.1,3.9,21.3
		c0.6,5.5-1.4,10.5-3,15.5c-0.9,2.8-0.6,4.8,2.1,6.5c5.3,3.4,7.1,8.7,7.5,14.7c0.4,5.6,0.2,11.2-3.1,16.1c-2.4,3.6-5.2,6.8-9.5,8.1
		c-3.5,1.1-6.9,0.2-10.3-0.8c-2-0.6-4-1.2-6-1.9c-1.3-0.5-2.3-0.2-3,1c-1,1.5-1.9,3-2.9,4.5c-1.1,1.6-0.8,2.6,1.1,3.5
		c5.3,2.7,10.4,5.6,15.5,8.5c1.7,1,3.2,2.2,4.7,3.5c3.5,3,4.6,6.8,2.8,11c-2.4,6-5.2,11.9-7.8,17.8c-1.9,4.3-3.8,8.6-5.8,12.9
		c-0.9,1.8-0.3,2.8,1.5,3.6c8.8,3.9,17.5,7.7,26.2,11.7c11.4,5.2,22.9,10.3,33.2,17.5c10.2,7.1,15,17.4,15.7,29.7
		c0.1,1.9-0.5,2.5-2.5,2.5C248.2,269,199.2,269,150.2,269C150.2,269,150.2,269,150.2,269z"/>
</g>
<g id="Ebene_2">
	<path class="st1" d="M150.2,269c-48.8,0-97.5,0-146.3,0c-3,0-3.2-0.4-3-3.4C2,251.1,9.7,241,21.8,233.5
		c10.9-6.7,22.7-11.5,34.3-16.8c7.3-3.3,14.5-6.8,21.8-10.1c2.2-1,2.4-2.3,1.4-4.1c-2-3.6-4-7.1-6-10.7c-2.2-4-4.6-7.9-6.7-11.9
		c-2.6-5-2.1-8.2,2-12c4.5-4.2,9.5-8,14.2-12c1.7-1.4,4.2-2.6,4.6-4.3c0.4-1.4-1.7-3.5-2.8-5.2c-1.7-2.7-1.8-2.7-4.4-0.9
		c-4.7,3.2-9.6,5.6-15.6,5.1c-7.7-0.7-13.2-5.7-14.4-13.4c-1.2-7.9,0.6-15.2,4.4-22.1c0.4-0.8,0.4-2,0.1-2.9
		c-1.2-3.8-2.6-7.6-3.7-11.4c-1.1-3.7-0.5-7.4,2.2-10c4-3.8,3.3-8,2.4-12.6c-0.8-4.1-1.2-8.4-1.7-12.6c-0.3-3.3,1-6,3.7-7.8
		c3.1-2.1,4.2-4.8,4.3-8.4C62,42,66.4,37.1,72.3,33.3c2.5-1.7,5.2-3.1,7.9-4.5c1.6-0.8,2.6-1.9,2.8-3.6c1.1-7.8,5.3-13.2,12.7-16.4
		c6.7-2.8,13.3-5.6,20.8-5.5c4.4,0.1,8.4,1.2,12.2,3.4c0.9,0.5,2.4,0.7,3.4,0.3c8.6-3.6,17.7-5.2,27-5.9c1.9-0.1,3.7-0.3,5.6-0.5
		c6.8-0.7,11.8,2.4,15.7,7.6c2.4,3.2,2.5,3.2,6.1,1.6c4.9-2.1,9.3-0.7,11.6,4c1.1,2.2,1.6,2.7,4.2,1.6c4.3-2,8.8-0.8,12.6,1.7
		c10.1,6.7,15.3,15.9,14.3,28.2c-0.1,1.4-0.9,2.7-1,4c-0.1,0.9,0.3,2.4,0.9,2.6c4.4,1.9,6.5,5.7,8,9.8c2.5,6.9,3.1,14.1,3.9,21.3
		c0.6,5.5-1.4,10.5-3,15.5c-0.9,2.8-0.6,4.8,2.1,6.5c5.3,3.4,7.1,8.7,7.5,14.7c0.4,5.6,0.2,11.2-3.1,16.1c-2.4,3.6-5.2,6.8-9.5,8.1
		c-3.5,1.1-6.9,0.2-10.3-0.8c-2-0.6-4-1.2-6-1.9c-1.3-0.5-2.3-0.2-3,1c-1,1.5-1.9,3-2.9,4.5c-1.1,1.6-0.8,2.6,1.1,3.5
		c5.3,2.7,10.4,5.6,15.5,8.5c1.7,1,3.2,2.2,4.7,3.5c3.5,3,4.6,6.8,2.8,11c-2.4,6-5.2,11.9-7.8,17.8c-1.9,4.3-3.8,8.6-5.8,12.9
		c-0.9,1.8-0.3,2.8,1.5,3.6c8.8,3.9,17.5,7.7,26.2,11.7c11.4,5.2,22.9,10.3,33.2,17.5c10.2,7.1,15,17.4,15.7,29.7
		c0.1,1.9-0.5,2.5-2.5,2.5C248.2,269,199.2,269,150.2,269C150.2,269,150.2,269,150.2,269z M168.4,107.6c-1.4,0.7-2.6,1.1-3.7,1.8
		c-2.8,1.7-2.9,3.2-0.5,5.4c0.6,0.5,1.3,0.9,1.7,1.5c0.4,0.6,1.1,1.4,0.9,1.9c-0.1,0.5-1.1,1-1.8,1c-2.1,0.3-2.6,1.2-2.2,3.3
		c0.7,4,1,8.1,1.7,12.1c0.3,1.8,1,3.8,2.2,5.2c2.4,3,2.7,4.4,0.3,7.3c-1.4,1.7-3.3,3-4.6,4.8c-1.3,1.8-2.5,2.3-4.7,1.8
		c-2.5-0.5-5.2-1.7-7.7,0.1c-1.8,1.3-3,0.6-4-1c-2.4-3.9-2.5-3.9-6.9-2.3c-0.4,0.1-0.7,0.3-1.1,0.4c-2.9,0.9-7.1-2.9-6.5-5.8
		c0.1-0.5,0.5-1.2,1-1.4c0.3-0.2,1.2,0.1,1.4,0.4c1.7,2.8,3,1,4.3-0.3c2.9-2.9,4.5-2.5,5.9,1.4c0.2,0.6,0.2,1.2,0.3,1.8
		c0.6,2.6,2.8,4,5.4,3.4c3.4-0.8,5.4-4,4.4-7.8c-1-4.1-1.6-8.1-0.8-12.4c0.9-4.9,0.2-9.8-0.9-14.7c-0.7-2.9-0.9-5.9-0.9-8.9
		c0-3.8,1.3-7,4.9-8.9c3.6-1.8,7.2-3.7,11-5c3.4-1.3,7-1.4,10.5,0c1.8,0.7,3.6,1.5,5.2,2.5c1.5,0.9,2.4,0.6,3.2-0.9
		c1.4-2.8,1.9-5.6,0.4-8.5c-0.9-1.9-2.1-3.6-3.1-5.4c-1.3-2.3-2.8-4.5-3.8-6.9c-1.5-3.6,0-7.2,0.6-10.7c1.2-6.7-4-15.3-10.8-16.7
		c-3-0.6-6.3-0.1-9.5,0.2c-4.9,0.5-9.8,0.5-14.4-1.6c-4.5-2-9.2-2.8-14.1-2.2c-2.5,0.3-5.1,0.5-7.7,0.8c-4.5,0.5-8.9,1.3-12.9,3.8
		c-8.2,5.1-11.5,12.9-11.6,22c-0.1,5.6-0.7,10.9-3.6,15.8c-2.8,4.7-3.5,9.8-3.2,15.2c0.4,7.3,0.4,14.5,0.7,21.8
		c0.1,2.9-0.8,5.2-3.6,6.7c-0.9,0.5-1.9,1.6-2.1,2.6c-0.9,4.2-0.9,8.5,1.6,12.3c1.6,2.5,4.3,2.5,6.2,0.3c0.7-0.8,1.3-1.6,2-2.3
		c0.2,0.1,0.4,0.2,0.6,0.2c0,1.9-0.3,3.9,0.1,5.7c1.3,6.5,3,12.9,6,19c0.5,1.1,0.6,2.7,0.3,3.9c-1.2,4.5-2.6,8.9-3.9,13.3
		c-1,3.6-1.7,7.2-0.1,10.9c6,13.8,15,25,28,33c3.3,2,5.4,2.3,8.2-0.4c3.8-3.7,7.4-7.7,10.8-11.8c1.4-1.7,2.4-3.8,3.3-5.9
		c0.7-1.7,0.1-3-1.9-3.4c-0.8-0.1-1.7-0.3-2.5-0.4c-5.1-0.5-10-1.4-14.5-3.9c-8.9-5-16-11.7-20.6-20.9c-1.1-2.2-2.1-4.4-3.2-6.7
		c5.3,3.9,10,8.2,15,12.1c5.2,4.1,10.4,8.6,17.9,7.8c4.2-0.4,8.6-0.3,12.7-1.3c4.7-1.1,7.2-5.4,6.5-9.9c-0.5-3.1-3.8-5.5-8.5-5.5
		c-2.7,0-5.4,0.6-8.1,0.6c-1.8,0-3.8-0.5-5.5-1.2c-1.3-0.6-1.2-2,0.2-2.4c2.4-0.6,5-1.2,7.4-1.1c3.3,0.1,6.6,1.2,9.9,1.4
		c2.9,0.2,5.7-2.9,5.6-5.5c-0.1-2.3-2.5-4.1-5.7-3.9c-1.8,0.1-3.7,0.7-5.4,1.3c-2,0.7-3.8,1.1-5.8,0.2c-1.8-0.9-3.6-0.7-5.4,0.2
		c-2.6,1.4-5,1.4-7.1-1c-1.1-1.1-2.4-1.6-3.9-0.4c-0.6,0.5-1.6,0.5-2.4,0.8c0-0.9-0.2-2,0.2-2.8c0.9-2.2,2-2.6,4.2-1.3
		c2.2,1.3,4.1,1,6-0.5c3.4-2.7,4.7-2.6,7.5,0.7c2.6,2.9,4,2.9,6.6,0.1c2.8-3,3.8-3.4,7.2-1.1c2.9,2,5.3,2.2,8.4,0.5
		c2.3-1.3,4-0.1,4.2,2.6c0.1,0.8-0.2,1.7,0.1,2.3c0.5,1,1.2,2.5,2.1,2.7c2.2,0.5,4.6,0.4,6.2-1.7c2.5-3.3,4.9-6.6,7.1-10
		c3.7-5.7,6.7-11.7,6.4-18.8c-0.2-5.2,0.6-10.1,2.1-15.1c1-3.3,0.8-6.6-0.6-9.7c-0.4-0.8-1.5-1.7-2.4-1.9c-0.5-0.1-1.7,0.9-2,1.6
		c-0.5,1.2-0.7,2.5-0.7,3.8c0,2.5-0.8,4.6-2.8,6.1c-1.8,1.3-3.8,2.5-5.8,3.5c-0.8,0.4-2.2,0.3-2.9-0.1c-1.2-0.8-0.8-2,0-3
		c0.9-1.2,0.7-2.3-0.8-2.9c-0.4-0.1-0.6-0.5-1.2-1c1.4-0.5,2.5-1.1,3.6-1.1c3.9-0.2,5.9-2.8,7.5-5.8c1.3-2.4,0.5-4.2-2.1-5.3
		c-1.1-0.5-1.7-0.4-1.9,1c-0.2,1.3-0.5,2.6-1,3.8c-1.1,2.6-3.5,4-6.2,3.7c-2.7-0.3-4.8-2.3-5.4-5
		C168.8,110.4,168.7,109.3,168.4,107.6z M201.1,195c-0.7-4.4-1.4-9.7-2.3-15c-0.2-1.2-1.1-2.3-1.7-3.5c-1,1.1-2,2.1-2.8,3.3
		c-1.8,2.7-3,5.9-5.1,8.2c-8.9,9.4-19.4,16-32.5,18.2c-2.7,0.4-3.4,1.9-2.2,4.3c0.9,1.8,1.8,3.6,2.8,5.4c2.3,4.2,4.7,8.4,8.8,11.2
		c2.4,1.7,5,2.3,7.7,1.1c9.4-4.1,17.7-9.7,22.8-19C198.7,205,201,200.9,201.1,195z M101.5,24.5c0.2,0.2,0.5,0.4,0.7,0.7c2,0,4,0,6,0
		c1.3,0,2.7,0,3.9,0.4c1.2,0.3,1.9,1.4,0.8,2.5c-2.1,2.2-4.3,4.2-7.5,4.8c-1.3,0.2-2.6,0.7-3.7,1.4c-4.2,2.9-8.5,5.7-12.5,8.9
		c-3.8,3.1-7.2,6.7-9,11.4c-0.6,1.6-1.1,3.4,0.5,4.7c1.5,1.2,3.3,1.3,5,0.1c2.1-1.5,3.2-3.4,3.3-6.1c0.1-3.3,0.8-6.7,4.3-8.1
		c2-0.8,4.5-0.4,6.8-0.6c0.8-0.1,2.2-0.3,2.3-0.7c0.7-3.4,3.3-5.4,5.3-7.8c3.6-4.2,8-6,13.7-4.8c4.6,1,8.7,2.8,12.5,5.4
		c2.3,1.5,4.4,1.4,5,0c1-2.3-1.1-3.1-2.5-4c-1.3-0.9-2.8-1.5-4-2.4c-0.6-0.5-0.9-1.5-1.3-2.3c0.7-0.4,1.5-1,2.2-1
		c1.4,0,2.9,0,4.1,0.5c5.6,2.2,11.2,4.4,13.4,10.9c0.3,0.8,1.7,2.1,2.1,1.9c1.1-0.4,2.5-1.4,2.8-2.4c0.5-1.9,0.6-3.9,0.5-5.9
		c-0.2-3-2.7-4.4-4.8-5.9c-2.9-2-5.9-4.2-9.8-3.2c-6.7,1.8-12.8,0.8-18.6-3.3c-2.8-2-6.2-3.4-9.7-2.1c-3.3,1.1-6.4,2.7-9.5,4.3
		C102.8,22,102.3,23.5,101.5,24.5z M220.6,115.1c-4.8,0.1-9.7-4-10.3-7.8c-0.7-4.5,2.1-9,6.6-10.5c2.3-0.8,3.1-2.2,2-4.2
		c-1.4-2.7-3.7-4.6-6.8-5.2c-0.9-0.2-2.3,0.1-3,0.8c-4.2,3.8-6.8,8.6-6.2,14.4c0.7,6.2,3.8,11.5,8.5,15.5c5.8,4.9,12.4,6.7,19.7,3.4
		c4.1-1.9,5.1-3.9,3.4-8.1c-0.7-1.7-1.9-3.9-3.4-4.6c-2.2-0.9-3.4,1.6-4.7,3.1C224.8,114,222.6,115,220.6,115.1z M204.9,50.9
		c1.7-2.8,1.5-5.1-1-7.3c-3.5-3.1-7.5-5.3-12.5-4.3c-3,0.6-6.1,1.2-9.1,1.9c-1.9,0.4-2.7-0.2-2.6-2.1c0.1-0.7,0.2-1.4,0.3-2
		c1.6-5.7,5.7-9.6,9.8-13.5c0.6-0.6,1-1.4,1.5-2.1c-0.9-0.4-2-1.3-2.8-1.1c-5.5,1.5-11.1,3.1-14.2,8.4c-2.7,4.6-3.3,9.7,1.5,13.5
		c0.9,0.7,1.4,2.3,1.6,3.6c0.9,4.5,4.4,7,8.8,5.8c2-0.5,3.7-1.8,5.6-2.8c4-2.2,7.7-1.9,11.3,0.9C203.8,50.2,204.3,50.5,204.9,50.9z
		 M132,246.9c3.2-0.1,4.8-1.3,4.2-3.2c-1.6-5.1-3.7-10-8.7-12.6c-5.1-2.7-9.7-5.8-13.3-10.4c-2.9-3.7-5.8-7.5-8.8-11.1
		c-0.5-0.7-1.6-0.9-2.3-1.4c-0.2,1-0.7,2-0.5,2.9c0.8,3,1.8,5.9,3,8.8c3.5,8.5,7.8,16.4,15.5,21.9
		C124.6,244.3,128.4,246.2,132,246.9z M151.5,243.2c-2.1-0.4-4.3-0.7-6.3-1.3c-0.7-0.2-1.7-1.4-1.7-2.1c0.1-1.9,4-4.4,5.9-3.8
		c1.9,0.6,3.3,0,4.3-1.4c2.7-4.1,4.2-8.5,2.3-13.3c-0.4-1-1.7-1.7-2.6-2.5c-0.8,1.2-1.7,2.3-2.3,3.5c-0.2,0.5,0.2,1.3,0.2,2
		c0.1,1.1,0.2,2.2,0,3.2c-0.4,2.3-1.9,3.2-4.2,2.6c-1.3-0.3-2.5-0.7-3.8-1.1c-2.6-0.7-4.9,0.5-5.5,3.1c-0.3,1.4-0.5,3-0.1,4.3
		c1,3.1,2.2,6.3,3.7,9.2c1.5,2.8,4.3,4.5,7.6,3.8c3.7-0.7,7.5-1.7,10.9-3.3c5.1-2.4,8.4-4.7,3.8-11.4c-0.3-0.4-0.3-1-0.7-1.2
		c-0.6-0.4-1.5-1-1.9-0.8c-1.4,0.8-2.9,1.7-3.8,3c-0.9,1.2-1.1,2.9-1.6,4.3C154.9,242,153.9,243.5,151.5,243.2z M201.3,217.3
		c0-0.3,0.1-0.6,0-0.9c-0.3-0.9-0.8-1.8-1.1-2.7c-0.8,0.7-1.8,1.3-2.3,2.2c-1.5,2.6-2.7,5.4-4.3,7.9c-3.4,5.3-7.6,10-13.4,12.8
		c-2,1-4.2,1.5-6.3,2.3c-2.8,1.1-3.4,2.5-1.8,5c3.5,5.4,7.7,7.6,13.3,2.5c0.5-0.4,1-0.8,1.4-1.2c3.1-3.9,6.4-7.7,9.2-11.9
		C199.1,228.5,201.5,223.3,201.3,217.3z M109.4,250.1c3.3,0,3.9-0.8,2.9-2.8c-0.5-1-1.1-1.9-1.7-2.7c-2.9-4.1-5.9-8.2-8.7-12.3
		c-4.4-6.5-8.7-13.1-13.2-19.6c-0.5-0.8-2.1-1.7-2.7-1.4c-1.6,0.7-1.2,2.2-0.6,3.6c0.4,0.8,0.7,1.5,1.1,2.3c2.1,3.7,4.2,7.4,6.5,11
		c4.2,6.6,8.5,13.1,12.9,19.5C106.9,248.9,108.7,249.6,109.4,250.1z M214.6,74.8c-1.3-5.7-2.7-11-6.6-15.3c-2.9-3.2-6.9-4.1-10.8-5
		c-1-0.2-2.2,0.4-3.3,0.7c0.5,1,0.7,2.2,1.5,2.8c4.4,3.5,7.4,7.8,9.9,12.7c1.1,2.1,2.8,4.1,4.5,5.8c0.8,0.8,2.4,1.2,3.5,1
		C213.9,77.5,214.2,75.7,214.6,74.8z M59.4,128.6c0.2,6.6,5.3,9.9,10.7,6.5c3.2-2,5.5-5.5,8-8.5c0.5-0.6,0.4-2.5-0.1-2.8
		c-1.1-0.8-2.6-1.8-4,0.1c-0.8,1.1-1.7,2-2.8,2.8c-2.8,2.1-5.1,1.2-5.6-2.3c-0.1-0.7-0.1-1.5-0.5-2c-0.6-0.7-1.4-1.4-2.2-1.5
		c-0.5-0.1-1.5,0.7-1.7,1.4C60.5,124.3,60,126.4,59.4,128.6z M185.5,107.4c1.3-2.6,1.7-4.8-0.3-6.7c-0.8-0.8-1.8-1.4-2.9-1.9
		c-3.3-1.7-6.8-2.1-10.1-0.5c-2.5,1.2-4.6,3.1-6.7,5c-0.5,0.5-0.4,2-0.2,2.9c0.1,0.3,1.8,0.5,2.4,0.2c3.4-1.6,6.9-2.4,10.6-0.8
		c0.5,0.2,1.2,0.1,1.9,0.1c0.1-0.9,0.1-1.6,0.2-2.7C182.2,104.5,183.8,105.9,185.5,107.4z M158.9,139.8c0.2,1.5,0.6,2.7,0.5,3.8
		c-0.1,1.2-0.7,2.4-1.1,3.7c-0.4,1.4,0.3,1.8,1.6,1.7c2.1-0.2,3.7-2,3.7-4.3C163.7,141.9,162.2,140.2,158.9,139.8z M171.1,109.3
		c1.5,1.3,2.5,2.8,3.4,2.7c1-0.1,2.4-1.5,2.5-2.5c0.2-1.5-1.1-2.8-2.8-2.6C173.3,106.9,172.5,108.1,171.1,109.3z"/>
</g>
<g id="Ebene_1">
	<path class="st1" d="M140.6,134.3c-2.1-2.6-4.3-5.3-4.9-8.7c-0.2-1.3,0.7-2.9,1.2-4.3c0.6-1.8,1.4-3.5,1.9-5.4
		c0.2-0.6-0.4-1.4-0.7-2.1c-0.7,0.3-1.4,0.4-2,0.8c-1,0.6-1.8,1.5-2.8,2.1c-0.8,0.4-1.7,0.3-2.6,0.4c-0.1-0.2-0.2-0.4-0.3-0.6
		c0.8-1.4,1.7-2.7,2.5-4.1c1.3-2.3,0-5-2.6-5.5c-1.7-0.4-2,1.1-1.6,2c1.1,3.4-1.2,5.3-3.3,7.1c-2.2,1.9-4.5,0.9-6.7-0.3
		c-1.9-1.1-3-2.6-3-4.9c0-0.5,0.2-1,0.1-1.4c-0.2-0.7-0.4-1.5-0.9-1.9c-0.3-0.2-1.3,0.1-1.8,0.5c-3.1,2.3-3,6.4,0.2,8.6
		c0.5,0.4,1.2,0.7,1.7,1.1c-1.5,2.2-4,2.4-5.6,0.4c-1-1.2-1.5-2.9-2.5-4.1c-0.6-0.7-1.7-1.5-2.5-1.4c-2.9,0.2-5.2-2.1-4.9-5.1
		c0.7-6.9,5.3-12,12.4-14c11.1-3.1,20.2,0.1,28,8c2.4,2.5,3.2,5.7,2.4,8.8c-1.4,6-1.9,11.8-0.5,17.9c0.5,1.9-0.2,4.2-0.3,6.2
		C141.3,134.2,140.9,134.3,140.6,134.3z M114.5,106.3c2-0.4,3.9-1,5.9-1.1c2.1,0,3.5-0.2,2.1-3.6c1.8,0.9,2.8,1.4,3.9,1.8
		c0.6,0.2,1.5,0.6,1.8,0.4c0.4-0.3,0.7-1.4,0.5-1.8c-0.6-1.3-1.2-2.8-2.2-3.6c-4.4-3.6-9.6-4.2-14.9-2.6c-3.4,1-7.4,5.8-7.3,8.8
		c0,1,0.7,2.5,1.4,2.8c0.9,0.4,2.3-0.1,3.3-0.5c0.7-0.3,1.2-1.2,1.9-1.7c0.8-0.6,1.7-1,2.5-1.4C113.7,104.6,114.1,105.4,114.5,106.3
		z M119.2,108.6c0.1,2,0.7,3.4,2.6,3.3c1.8-0.1,2.3-1.5,2.4-3.1c0.1-1.7-0.8-2.5-2.4-2.4C120.2,106.4,119.2,107.3,119.2,108.6z"/>
</g>
</svg>
